<svg xmlns="http://www.w3.org/2000/svg" width="44" height="44" fill="none"><path fill="#fff" fill-rule="evenodd" d="m26.405 7.068-16.6 1.227C8.465 8.41 8 9.285 8 10.335v18.197c0 .817.29 1.516.99 2.45l3.902 5.074c.641.817 1.224.992 2.448.934l19.277-1.167c1.63-.116 2.097-.875 2.097-2.158V13.192c0-.663-.262-.854-1.033-1.42L30.25 7.943c-1.282-.932-1.806-1.05-3.845-.875zm-10.63 5.79c-1.573.105-1.93.13-2.824-.598l-2.273-1.808c-.23-.234-.115-.525.467-.584l15.958-1.166c1.34-.117 2.038.35 2.562.758l2.737 1.983c.117.06.408.408.058.408l-16.48.992-.204.014zM13.942 33.49V16.11c0-.759.233-1.109.93-1.167L33.8 13.834c.642-.058.932.35.932 1.108v17.264c0 .759-.117 1.401-1.165 1.459l-18.113 1.05c-1.048.058-1.513-.291-1.513-1.225zm17.88-16.448c.116.525 0 1.05-.525 1.11l-.873.173v12.832c-.758.408-1.456.641-2.04.641-.931 0-1.164-.292-1.862-1.166l-5.71-8.982v8.69l1.807.409s0 1.05-1.457 1.05l-4.017.233c-.117-.234 0-.817.407-.933l1.049-.29v-11.49l-1.456-.119c-.117-.525.174-1.283.99-1.342l4.31-.29 5.94 9.098v-8.049l-1.514-.174c-.117-.643.349-1.11.93-1.167l4.02-.234z" clip-rule="evenodd"/></svg>