<svg xmlns="http://www.w3.org/2000/svg" width="44" height="44" fill="none"><path fill="#74AA9C" d="M20.246 7a7.596 7.596 0 0 0-7.222 5.232 7.503 7.503 0 0 0-5.005 3.628 7.55 7.55 0 0 0 .936 8.857 7.436 7.436 0 0 0 .64 6.127 7.59 7.59 0 0 0 8.158 3.637A7.496 7.496 0 0 0 23.39 37a7.6 7.6 0 0 0 7.223-5.232 7.468 7.468 0 0 0 4.994-3.626 7.535 7.535 0 0 0-.925-8.86v-.01a7.461 7.461 0 0 0-.641-6.135 7.59 7.59 0 0 0-8.148-3.628A7.53 7.53 0 0 0 20.246 7zm0 1.95-.01.01c1.322 0 2.593.456 3.61 1.3-.041.02-.122.072-.182.102l-5.982 3.445a.972.972 0 0 0-.488.853v8.086l-2.574-1.484v-6.684a5.63 5.63 0 0 1 5.626-5.628zm7.205 2.355a5.632 5.632 0 0 1 4.89 2.817c.65 1.139.894 2.47.67 3.759-.041-.03-.12-.072-.172-.102l-5.98-3.454a1.003 1.003 0 0 0-.986 0l-7.01 4.044v-2.967l5.787-3.342a5.61 5.61 0 0 1 2.8-.755zm-14.794 3.07v7.1c0 .355.183.67.488.853l6.998 4.032-2.584 1.494-5.778-3.333a5.622 5.622 0 0 1 .876-10.147zm13.406 1.758 5.788 3.332a5.61 5.61 0 0 1 2.055 7.68l.01.01a5.617 5.617 0 0 1-2.93 2.46v-7.103a.971.971 0 0 0-.487-.853l-7.008-4.044 2.572-1.482zm-4.25 2.448 2.95 1.706v3.403l-2.95 1.706-2.951-1.706v-3.403l2.95-1.706zm4.637 2.681 2.574 1.484v6.674a5.63 5.63 0 0 1-5.626 5.628v-.01a5.618 5.618 0 0 1-3.6-1.3 3.04 3.04 0 0 0 .182-.102l5.98-3.443a.952.952 0 0 0 .488-.853l.002-8.078zm-1.68 4.37v2.966l-5.787 3.332c-2.697 1.545-6.133.631-7.69-2.052h.01a5.574 5.574 0 0 1-.672-3.759c.042.03.123.072.173.102l5.98 3.454c.306.173.68.173.986 0l7-4.043z"/></svg>