<svg xmlns="http://www.w3.org/2000/svg" width="44" height="44" fill="none"><g clip-path="url(#a)"><path fill="#00ADDC" fill-rule="evenodd" d="M28.924 10.353c.49.283.857.84 1.044 1.714.187.875.18 2.013-.034 3.35-.09.558-.214 1.146-.374 1.758a30.966 30.966 0 0 0-4.195-.658 30.98 30.98 0 0 0-2.667-3.304c.45-.444.897-.846 1.335-1.202 1.051-.854 2.033-1.43 2.884-1.705.852-.275 1.517-.236 2.007.047zm-7.622 2.86c-.45-.444-.897-.846-1.335-1.202-1.051-.854-2.033-1.43-2.884-1.705-.852-.275-1.517-.236-2.007.047-.49.283-.857.84-1.044 1.714-.187.875-.18 2.013.034 3.35.09.558.214 1.146.374 1.758a30.97 30.97 0 0 1 4.195-.658 30.967 30.967 0 0 1 2.667-3.304zm.698-.716a19.54 19.54 0 0 0-1.403-1.262c-1.106-.9-2.197-1.554-3.207-1.88-1.01-.327-1.994-.341-2.814.132-.82.474-1.3 1.333-1.522 2.371-.222 1.038-.2 2.31.025 3.717.094.59.225 1.206.391 1.846a19.79 19.79 0 0 0-1.794.584c-1.331.508-2.443 1.126-3.231 1.837-.788.711-1.293 1.557-1.293 2.504 0 .947.505 1.792 1.293 2.503.788.712 1.9 1.33 3.231 1.838.557.212 1.157.407 1.794.583-.166.64-.297 1.257-.391 1.846-.226 1.407-.247 2.68-.025 3.717.222 1.038.702 1.898 1.522 2.371.82.474 1.805.46 2.814.133 1.01-.327 2.101-.981 3.207-1.88.463-.376.932-.798 1.403-1.262.47.464.94.886 1.403 1.262 1.106.899 2.197 1.553 3.207 1.88 1.01.326 1.994.34 2.814-.133.82-.473 1.3-1.333 1.522-2.37.222-1.039.2-2.31-.025-3.718a19.823 19.823 0 0 0-.391-1.846 19.868 19.868 0 0 0 1.794-.583c1.331-.509 2.444-1.127 3.231-1.838.788-.71 1.293-1.556 1.293-2.503 0-.947-.505-1.793-1.293-2.504-.788-.711-1.9-1.329-3.231-1.837a19.836 19.836 0 0 0-1.794-.584c.166-.64.297-1.257.391-1.845.226-1.408.247-2.68.025-3.718-.222-1.038-.702-1.897-1.522-2.37-.82-.474-1.805-.46-2.814-.133-1.01.326-2.101.98-3.207 1.88-.463.376-.932.798-1.403 1.261zm7.287 5.642a29.147 29.147 0 0 0-3.19-.542 38.179 38.179 0 0 1 2.064 3.574 29.15 29.15 0 0 0 1.126-3.032zm-.556 4.207a30.97 30.97 0 0 0 1.527-3.962 19.1 19.1 0 0 1 1.71.555c1.264.483 2.253 1.046 2.917 1.645.665.6.963 1.196.963 1.762 0 .565-.298 1.161-.963 1.761-.664.6-1.653 1.162-2.918 1.645-.528.202-1.1.388-1.709.556a30.971 30.971 0 0 0-1.527-3.962zm-1.106 0a36.687 36.687 0 0 0-1.314-2.49 36.663 36.663 0 0 0-1.498-2.382A36.683 36.683 0 0 0 22 17.367c-.964 0-1.905.037-2.813.107a36.663 36.663 0 0 0-1.498 2.383c-.483.835-.92 1.668-1.314 2.489.393.82.831 1.654 1.314 2.489.482.835.984 1.631 1.498 2.382a36.683 36.683 0 0 0 5.625 0 36.663 36.663 0 0 0 1.5-2.382c.482-.835.92-1.668 1.313-2.49zm-1.527 4.748a38.179 38.179 0 0 0 2.063-3.574 29.15 29.15 0 0 1 1.126 3.033c-.988.227-2.057.41-3.19.541zm-2.035 1.174a38.12 38.12 0 0 1-4.126 0c.679.916 1.372 1.75 2.063 2.492a29.134 29.134 0 0 0 2.063-2.492zm-1.365 3.21a30.97 30.97 0 0 0 2.667-3.304 30.95 30.95 0 0 0 4.195-.658c.16.612.284 1.2.374 1.758.214 1.337.221 2.475.034 3.35s-.554 1.431-1.044 1.714c-.49.283-1.155.323-2.007.047-.851-.275-1.833-.85-2.884-1.704a18.815 18.815 0 0 1-1.335-1.202zm-1.396 0a30.958 30.958 0 0 1-2.667-3.304 30.955 30.955 0 0 1-4.195-.658c-.16.612-.284 1.2-.374 1.758-.214 1.337-.221 2.475-.034 3.35s.554 1.431 1.044 1.714c.49.283 1.155.323 2.007.047.851-.275 1.833-.85 2.884-1.704.438-.357.885-.759 1.335-1.202zm-6.59-4.925c.989.227 2.058.41 3.19.541a38.179 38.179 0 0 1-2.063-3.574 29.173 29.173 0 0 0-1.126 3.033zm1.127-5.382a38.193 38.193 0 0 1 2.063-3.574 29.15 29.15 0 0 0-3.19.541c.298.97.674 1.988 1.127 3.033zm-.57 1.175a30.97 30.97 0 0 0-1.527 3.962 18.856 18.856 0 0 1-1.71-.556c-1.264-.483-2.253-1.046-2.917-1.645-.664-.6-.963-1.196-.963-1.761 0-.566.299-1.162.963-1.762.664-.6 1.653-1.162 2.918-1.645.528-.201 1.1-.387 1.71-.555a30.969 30.969 0 0 0 1.527 3.962zm4.668-5.923a38.12 38.12 0 0 1 4.126 0A29.134 29.134 0 0 0 22 13.931a29.171 29.171 0 0 0-2.063 2.492zm4.737 5.923a2.674 2.674 0 1 1-5.348 0 2.674 2.674 0 0 1 5.348 0z" clip-rule="evenodd"/></g><defs><clipPath id="a"><rect width="30" height="26.692" x="7" y="9" fill="#fff" rx="6"/></clipPath></defs></svg>