<svg xmlns="http://www.w3.org/2000/svg" width="44" height="44" fill="none"><path fill="#0B64A5" d="M31.675 19.198c-1.878 0-2.52.951-2.52 1.735 0 .856.428 1.45 2.948 2.758C35.835 25.498 37 27.233 37 29.777c0 3.803-2.9 5.847-6.823 5.847-2.068 0-3.85-.428-4.873-1.022-.166-.071-.19-.19-.19-.38v-3.495c0-.237.119-.309.285-.19a8.823 8.823 0 0 0 4.778 1.403c1.879 0 2.663-.785 2.663-1.854 0-.856-.547-1.617-2.948-2.853-3.375-1.617-4.778-3.257-4.778-5.99 0-3.067 2.401-5.61 6.561-5.61 2.044 0 3.47.309 4.255.665.19.119.238.309.238.475v3.257c0 .19-.119.31-.357.238-1.046-.666-2.59-1.07-4.136-1.07zm-20.444 2.829c.547.047.975.047 1.926.047 2.781 0 5.396-.974 5.396-4.754 0-3.019-1.878-4.54-5.04-4.54-.95 0-1.854.047-2.282.071v9.176zM7.001 9.404c0-.166.332-.285.522-.285A142.49 142.49 0 0 1 13.656 9c6.585 0 9.152 3.613 9.152 8.225 0 6.038-4.374 8.63-9.746 8.63-.903 0-1.212-.048-1.854-.048v9.128c0 .19-.072.285-.286.285H7.285c-.19 0-.285-.071-.285-.285V9.405z"/></svg>