<svg xmlns="http://www.w3.org/2000/svg" width="44" height="44" fill="none"><path fill="#1ABCFE" d="M21.75 22c0-2.762 2.184-5 4.875-5 2.694 0 4.875 2.236 4.875 5 0 2.762-2.181 5-4.875 5-2.69 0-4.875-2.236-4.875-5z"/><path fill="#0ACF83" d="M12 32c0-2.761 2.184-5 4.875-5h4.875v5c0 2.76-2.184 5-4.875 5S12 34.76 12 32z"/><path fill="#FF7262" d="M21.75 7v10h4.875c2.694 0 4.875-2.239 4.875-5 0-2.76-2.181-5-4.875-5H21.75z"/><path fill="#F24E1E" d="M12 12c0 2.761 2.184 5 4.875 5h4.875V7h-4.875C14.184 7 12 9.24 12 12z"/><path fill="#A259FF" d="M12 22c0 2.762 2.184 5 4.875 5h4.875V17h-4.875C14.184 17 12 19.237 12 22z"/></svg>