<svg xmlns="http://www.w3.org/2000/svg" width="44" height="44" fill="none"><path fill="#FF7F18" d="M31.333 16.75c0-.188.07-.283.283-.283h3.699c.187 0 .282.07.282.282v18.586c0 .188-.046.283-.282.283h-3.649c-.236 0-.307-.117-.307-.307V16.75h-.026zm-.259-5.347a2.403 2.403 0 0 1 4.806 0 2.251 2.251 0 0 1-2.45 2.402 2.22 2.22 0 0 1-2.352-2.402h-.004zM20.474 24.5c-.66-2.625-2.221-8.315-2.802-11.071h-.047c-.495 2.756-1.742 7.42-2.732 11.07h5.581zm-6.548 3.816-1.861 7.067c-.047.188-.118.236-.354.236H8.252c-.236 0-.282-.07-.236-.353l6.69-23.422a7.63 7.63 0 0 0 .236-1.955c0-.165.07-.236.188-.236h4.946c.166 0 .236.047.283.236l7.49 25.417c.047.188 0 .307-.187.307h-3.91c-.189 0-.308-.046-.354-.202l-1.933-7.091h-7.537l-.002-.004z"/></svg>