<svg xmlns="http://www.w3.org/2000/svg" width="44" height="44" fill="none"><path fill="#1572B6" d="M11.406 34.001 9 7h26.451l-2.41 26.997L22.21 37l-10.804-2.999z"/><path fill="#33A9DC" d="m22.226 34.705 8.753-2.427 2.06-23.07H22.226v25.497z"/><path fill="#fff" d="M22.226 18.99h4.382l.302-3.39h-4.684v-3.313h8.303l-.079.889-.813 9.126h-7.411V18.99z"/><path fill="#EBEBEB" d="m22.246 27.59-.015.005-3.688-.996-.235-2.642h-3.325l.464 5.2 6.783 1.884.016-.005v-3.445z"/><path fill="#fff" d="m26.326 22.162-.399 4.434-3.693.997v3.446l6.789-1.882.05-.56.575-6.435h-3.322z"/><path fill="#EBEBEB" d="M22.238 12.287V15.6h-8l-.066-.744-.151-1.68-.08-.888h8.296zm-.012 6.703v3.312h-3.642l-.066-.744-.15-1.68-.08-.888h3.938z"/></svg>